<svg xmlns="http://www.w3.org/2000/svg" width="176" height="250" viewBox="0 0 176 249">
  <defs>
    <linearGradient id="a" x1="7528.209961" x2="12095.799805" y1="9576.410156" y2="7616.47998" gradientTransform="matrix(0 0 0 0 0 0)" gradientUnits="userSpaceOnUse">
      <stop offset="0" stop-color="#6171b4"/>
      <stop offset=".431373" stop-color="#5b7ebe"/>
      <stop offset=".94902" stop-color="#7359a0"/>
      <stop offset="1" stop-color="#7359a0"/>
    </linearGradient>
  </defs>
  <path fill="url(#a)" fill-rule="evenodd" d="M128.082031 107.867188s-16.117187 15.402343-32.324219 16.375c-2.546874.15625-5.117187-.496094-7.199218-1.980469-9.058594-6.390625-.585938-20.929688-.585938-20.929688-8.496094 28.023438 28.574219-4.71875 28.574219-4.71875l-3.78125-2.46875C125.832031 92.6875 138.125 87.90625 138.125 87.90625c-5.058594 12.40625-7.046875 23.316406-7.046875 23.316406Zm0 0"/>
  <path fill="#5b7ebe" d="M16.933594 143.609375h6.796875c.058593 1.503906.488281 2.609375 1.296875 3.320313.796875.710937 2.046875 1.066406 3.726562 1.066406 1.390625 0 2.523438-.285156 3.367188-.855469.855468-.566406 1.285156-1.304687 1.285156-2.214844 0-1.117187-1.476562-2.324219-4.4375-3.628906-1.074219-.488281-1.917969-.867187-2.523438-1.164063-2.25-1.066406-3.878906-2.253906-4.902343-3.542968-1.011719-1.292969-1.523438-2.8125-1.523438-4.566406 0-2.585938.9375-4.648438 2.820313-6.167969 1.878906-1.53125 4.425781-2.289063 7.664062-2.289063 3.640625 0 6.425782.773438 8.378906 2.300782 1.9375 1.542968 2.984376 3.808593 3.128907 6.796874h-6.628907v-.085937c0-1.230469-.394531-2.167969-1.179687-2.808594-.773437-.628906-1.925781-.949219-3.4375-.949219-1.226563 0-2.214844.25-2.964844.769532-.75.511718-1.117187 1.175781-1.117187 1.980468 0 1.03125 1.390625 2.171876 4.164062 3.40625 1.058594.472657 1.890625.863282 2.5 1.160157 2.464844 1.175781 4.210938 2.394531 5.234375 3.652343 1.011719 1.269532 1.523438 2.8125 1.523438 4.613282 0 2.8125-1 5.039062-3.019531 6.664062C35.074219 152.679688 32.3125 153.5 28.789062 153.5c-3.675781 0-6.535156-.855469-8.570312-2.550781-2.035156-1.695313-3.128906-4.152344-3.285156-7.339844ZM54.125 147.996094l-1.035156 4.707031c-.773438.109375-1.414063.179687-1.925782.214844-.511718.035156-.976562.058593-1.40625.058593-1.988281 0-3.484374-.402343-4.496093-1.199218-1-.804688-1.511719-1.980469-1.511719-3.53125 0-.367188.035156-.785156.105469-1.28125.058593-.488282.15625-.984375.261719-1.507813l2.09375-9.769531h-2.722657l.867188-3.972656h2.738281l1.308594-6.261719h6.9375l-1.296875 6.261719h3.523437l-.832031 3.972656h-3.558594l-1.847656 8.632812c-.082031.507813-.164063.960938-.222656 1.375-.050781.414063-.085938.734376-.085938.960938 0 .472656.15625.839844.476563 1.101562.320312.261719.761718.390626 1.34375.390626.179687 0 .523437-.046876 1.023437-.117188.121094-.011719.203125-.023438.261719-.035156Zm10.949219-8.148438h7.714843c0-.070312 0-.164062.011719-.308594.011719-.128906.023438-.222656.023438-.269531 0-1.234375-.285157-2.171875-.859375-2.824219-.558594-.664062-1.367188-.984374-2.402344-.984374-1.179688 0-2.179688.390624-2.976562 1.164062-.785157.78125-1.296876 1.847656-1.511719 3.222656Zm6.15625 6.558594h7.175781c-.621094 2.085938-1.894531 3.761719-3.808594 5.015625-1.917968 1.246094-4.167968 1.875-6.738281 1.875-3.09375 0-5.542969-.890625-7.316406-2.691406-1.785157-1.792969-2.679688-4.234375-2.679688-7.304688 0-3.511719 1.105469-6.441406 3.320313-8.789062 2.214844-2.347657 5.023437-3.507813 8.425781-3.507813 3.105469 0 5.535156.863282 7.25 2.609375 1.722656 1.730469 2.59375 4.171875 2.59375 7.316407 0 .449218-.023437.921874-.085937 1.433593-.046876.507813-.128907 1.101563-.25 1.765625H64.613281v.699219c0 1.164063.273438 2.066406.832031 2.679687.570313.617188 1.378907.925782 2.449219.925782.789063 0 1.453125-.175782 2.023438-.519532.5625-.34375 1-.855468 1.3125-1.507812Zm24.097656-10.113281c-1.582031 0-2.867187.699219-3.867187 2.109375s-1.511719 3.203125-1.511719 5.359375c0 1.234375.296875 2.195312.890625 2.882812.585937.699219 1.40625 1.042969 2.453125 1.042969 1.417969 0 2.59375-.722656 3.546875-2.15625.941406-1.4375 1.40625-3.226562 1.40625-5.363281 0-1.242188-.25-2.203125-.75-2.867188-.5-.675781-1.226563-1.007812-2.167969-1.007812Zm-16.125 24.832031 6.269531-29.410156h6.511719l-.59375 2.714844c.878906-1.136719 1.867187-2.003907 2.960937-2.585938 1.097657-.59375 2.296876-.890625 3.582032-.890625 2.308594 0 4.09375.773437 5.378906 2.289063 1.285156 1.53125 1.929688 3.664062 1.929688 6.40625 0 3.984374-1 7.257812-3.011719 9.855468-2.011719 2.582032-4.535157 3.875-7.582031 3.875-1.425782 0-2.652344-.34375-3.699219-1.019531-1.035157-.6875-1.832031-1.671875-2.390625-2.976563l-2.5 11.742188Zm0 0"/>
  <path fill="#625796" d="M111.265625 124.253906h7.1875l-3.070313 14.5625c-.203124.996094-.371093 1.945313-.488281 2.847656-.121093.902344-.191406 1.554688-.191406 1.980469 0 1.222657.382813 2.179688 1.132813 2.882813.75.6875 1.785156 1.042968 3.117187 1.042968 1.640625 0 2.902344-.511718 3.785156-1.519531.867188-1.007812 1.640625-3.070312 2.296875-6.167969l3.296875-15.628906h7.328125l-2.734375 12.867188c-.050781.25-.132812.605468-.226562 1.101562-1.144531 5.492188-2.25 9.003906-3.34375 10.519532-1.097657 1.542968-2.535157 2.726562-4.320313 3.535156-1.796875.816406-3.855468 1.222656-6.203125 1.222656-3.546875 0-6.316406-.855469-8.304687-2.539062-1.976563-1.695313-2.964844-4.066407-2.964844-7.117188 0-1.375.394531-3.960938 1.191406-7.765625l.117188-.582031Zm38.023437 12.039063c-1.582031 0-2.867187.699219-3.867187 2.109375-1.011719 1.410156-1.511719 3.203125-1.511719 5.359375 0 1.234375.296875 2.195312.890625 2.882812.585938.699219 1.40625 1.042969 2.441407 1.042969 1.425781 0 2.605468-.722656 3.546874-2.15625.949219-1.4375 1.414063-3.226562 1.414063-5.363281 0-1.242188-.25-2.203125-.75-2.867188-.5-.675781-1.222656-1.007812-2.164063-1.007812Zm-16.125 24.832031 6.269532-29.410156h6.511718l-.597656 2.714844c.882813-1.136719 1.871094-2.003907 2.964844-2.585938 1.09375-.59375 2.296875-.890625 3.582031-.890625 2.308594 0 4.09375.773437 5.378907 2.289063 1.285156 1.53125 1.929687 3.664062 1.929687 6.40625 0 3.984374-1 7.257812-3.011719 9.855468-2.011718 2.582032-4.535156 3.875-7.59375 3.875-1.414062 0-2.640625-.34375-3.6875-1.019531-1.035156-.6875-1.835937-1.671875-2.394531-2.976563l-2.5 11.742188Zm0 0"/>
</svg>
